<?xml version="1.0" encoding="utf-8"?>
<!-- Generator: Adobe Illustrator 19.0.0, SVG Export Plug-In . SVG Version: 6.00 Build 0)  -->
<svg version="1.1" id="Layer_1" xmlns="http://www.w3.org/2000/svg" xmlns:xlink="http://www.w3.org/1999/xlink" x="0px" y="0px"
	 viewBox="0 0 749 453" style="enable-background:new 0 0 749 453;" xml:space="preserve">
<style type="text/css">
	.st0{fill-rule:evenodd;clip-rule:evenodd;fill:#00579B;}
	.st1{fill-rule:evenodd;clip-rule:evenodd;fill:#44A9DF;}
	.st2{fill-rule:evenodd;clip-rule:evenodd;fill:#FFFFFF;}
	.st3{fill-rule:evenodd;clip-rule:evenodd;fill:#9CDAE6;}
	.st4{fill:#71CDDD;}
	.st5{fill:#62C3A6;}
</style>
<g id="XMLID_65_">
	<path id="XMLID_287_" class="st0" d="M739.2,270.8c-0.2,11.6,4.1,28.3,4.1,28.3s-7.3,0.1-11.8-0.7c-5.7-0.9-8.8-2.6-8.8-2.6
		s-4.7-21.2-6.1-26c-1.4-4.7-1.4-2.6-1.4-2.6l-0.2,24.5c0,0,0.4,2.2-1.6,3.2c-2.1,1.1-6.6,1.1-7.4,1.2c-4.5,0.5-6.6-2.6-6.6-2.6
		s1.2-18.4,1.5-34.7c0.3-19.6-0.3-37.8-0.3-37.8s0.2,0.5,0-1.7c-0.2-2.1,2.8-1.7,2.8-1.7l21,17.7c0,0,0,22.9,1.7,28.3
		c1.7,5.4,1.4,0.7,1.4,0.7s1.4-6.4,1.2-14.4s2.1-8.5,2.1-8.5s0,0,0.9,0c0.5,0,5.7,5.4,8.6,8.9c3,3.8,3.7,5.7,3.7,5.7
		S739.4,261.2,739.2,270.8z M689.8,198.4c-0.8,1.7-2,1.4-2,1.4l-16.5-10.4l0.5-1.9l1.9,0.2c0,0,8.9-1.8,17.2-5.9
		c3.9-2,7.6-6.6,10.3-7.8c2.6-1.1,4.1,0.3,4.1,0.3s-5.2,4.5-9.2,10.2C693.1,189,691.2,195.4,689.8,198.4z M697.9,217l-1.4,50.7
		c0,0,0.1,11.1-1.9,18.2c-1.8,6.4-5.6,8.7-5.6,8.7s-3.1,0.4-5.2,0.3c-3.8-0.2-7.8-1-7.8-1s-5.9-1.3-8.6-3
		c-5.6-3.4-10.2-8.6-10.2-8.6s-4.7-4.7-7.4-18c-1.6-8.1-1.6-23.8-1.9-30.6c-0.9-24.5,6-38.3,6-38.3s-1.2-0.2,1.4-2.8
		c7.2-7.2,15.4,1.4,28.1,9.4C696.1,210.2,697.9,217,697.9,217z M655.9,247.4v3.5c0,0-0.6,6,1.8,12.3c2.5,6.4,7.4,12.7,7.4,12.7
		s6,4.6,10.3,4c3.7-0.5,5.8-6.1,5.8-6.1s3.6-13.5,4.1-26.2c0.2-4.5,0.8-10.5,0.6-16.3c-0.1-3.7-0.6-7.3-0.8-9c0,0,0.1,0.1,0.1,0.1
		c-0.3-1.7-0.3-1.4-0.1-0.1C650.9,191.4,655.9,247.4,655.9,247.4z M646.3,215.5c-1.5,11.3-0.9,29.5-0.4,39.9
		c1.1,23,12.8,33.5,12.8,33.5l-0.2,2.1l-1.7,2.6l-20.1,1.9l-3.1-3.1c0,0-6.1-26-8.8-59c-2.6-31.5-1.4-67.2-1.4-67.2l-0.5,0.5
		c0,0,0,0,0.5-1.7c0.5-1.7,2.6-1.4,4.3-1.4c1.7,0,12.5,7.1,21.5,14.2c9,7.1,4.5,10.6,4.5,10.6S648.7,197.7,646.3,215.5z
		 M615.8,188.9c-1.8,4.2-4.6,8.5-4.6,8.5l-1.9,0.9c0,0,0.1-12.2-4.4-19c-4.8-7.2-14.2-8.9-14.2-8.9s-13.6-5.4-21.9-0.2
		c-7.6,4.8-10,20.3-10,20.3s-2.8,16.1-1.2,37.1c1,14.1,6.6,37.2,6.6,37.2s3.5,11.1,12.1,15.9c7.3,4.1,19.8,2.1,19.8,2.1
		s8.6-0.9,13.5-5.6c4.2-4,4.7-12,4.7-12l16.8,21.9c0,0,2.1,7.3-11.1,9.4c-13.2,2.1-33.3,7.8-36.6,9.2c-1.5,0.6-13.2,3-20-4.3
		c-8-8.7-11.2-27.3-11.2-27.3s-6.1-21.6-9.8-46.7c-2.4-16.2-2.9-39.9-2.9-39.9s-0.3-22.4,3.6-37.8c2.9-11.2,10.3-16.7,10.3-16.7
		s2.8-3.6,12-0.9c5.5,1.6,13,6,18.5,8.8c4.5,2.3,7.8,3.1,7.8,3.1s4.5,3.1,9.9,5.7c4.5,2.2,10,3.9,10,3.9s6,2.3,8.1,8.6
		c1.9,5.7,0,15.5,0,15.5S618.1,183.5,615.8,188.9z M539.4,250.6c4.2,35.5,23.9,55.1,23.9,55.1l-5.7,5.2c0,0-10.8,4.6-20,7.5
		c-6.1,1.9-11.4,3.1-11.4,3.1s-4.4-9-7.8-20.5c-3.9-13.1-6.8-29-6.8-29l-17,2.1c0,0-0.6,15.6,0.4,32.6c0.8,12.4,3.3,27.6,3.3,27.6
		l-26.9,13c0,0-0.9,0-1.9,0c-0.9,0-1.9-0.5-1.9-0.5l-3.8-3.3c0,0,0.5-27.4,1.6-52.8c1-22.2,2.6-42.9,2.6-42.9s3-35.6,8.1-68.2
		c5.8-36.9,13.9-71.4,13.9-71.4l0.2-1.9l52,17.9c0,0-3.9,20.4-5.4,47.4C535.6,195.9,536.5,225.8,539.4,250.6z M506.1,192.2l-1.4-1.2
		c0,0-3.7,15.4-6,29.3c-1.6,9.9-2.1,19.6-2.1,19.6l0.5,2.6l10.4-0.2l0.5-1.4c0,0-1.6-12.6-2.1-24.5
		C505.5,203.9,506.1,192.2,506.1,192.2z M460.5,230.7c-7.6,55.7-6.1,119.1-6.1,119.1s-0.6,2.4-9.7,6.5c-5.4,2.4-14.7,4.8-21.3,7.3
		c-10.4,4-17.2,7.9-17.2,7.9s-6.9-10.2-10.7-24.2c-5.2-19-7.8-43.3-7.8-43.3s-3.8-29.9-4.7-71.5c-1.2-56.1,0.5-128.3,0.5-128.3
		l0.2-1.9l6.6-9.4c0,0,9.5,0,18,0.4c6.3,0.3,12.3,1,12.3,1s-9.9,62-9.8,118.7c0.1,52.8,10,100.5,10,100.5s2.6,4.2,1.9-3.5
		c-0.2-1.7-1.3-13.4-0.9-29.5c0.5-21.4,2.9-51.1,6.5-80.5C434.8,147.6,448,98.3,448,98.3s9.4,1.1,18.2,2.4
		c8.1,1.2,15.6,2.6,15.6,2.6l5.2,9c0,0-6.6,16.8-13.2,44.2C468.9,176.9,464.2,203.9,460.5,230.7z M368,379.9
		c-10.8,6.3-29.6,4.5-29.6,4.5s-14.7-0.3-24.4-15.4c-8.4-13.1-12-41.3-12-41.3s-8-50.1-5.5-99.6c2.5-50.3,15.4-100,15.4-100l2-4.5
		c0,0,3.8-18.1,15-26.5c8.1-6.1,24.6-3.4,24.6-3.4s10.6,3.1,16.6,15.8c4.7,9.9,5.1,30,5.1,30s-0.6,50.7,0.8,103.3
		c0.9,36.2,4.6,74.2,5.7,96.3c0.6,12.5-0.8,19.3-0.8,19.3S378.8,373.7,368,379.9z M360,198.6c-0.1-15-0.3-25-0.3-25s0-20.5-3-27.8
		c-4.7-11.5-13.1-11.8-13.1-11.8s-6.5-1.4-10.7,3c-8.4,8.7-12.9,29.6-12.9,29.6l-1.9,4.7c0,0-3.1,13.8-4.5,31
		c-2.2,26.3-3.1,60.1-3.1,60.1s-0.2,32.5,4.9,55.4c4.1,18.8,12.8,28.4,18.8,33.3c13.2,10.9,22.2-10.4,22.2-10.4s3.1-17.7,3.4-35.4
		C360.4,273.8,360.2,227.1,360,198.6z M292.2,273.4c0.8,58.5,19.2,105.5,19.2,105.5l1.4,5.7c0,0,2.5,3.2-5.3,2.8
		c-7.8-0.4-31.2-0.7-31.2-0.7s-1.8,2.8-5-4.2c-1.6-3.5-17.7-41.3-27.3-78.5c-10-38.8-13.5-76.9-13.5-76.9s-1.4-1.4-1.1,9.6
		c0.2,7.1,1.3,50.4,6.1,88.9c2.6,20.9,10.2,49.4,10.2,49.4s3.2,9.2-11,5.3c-14.2-3.9-29-2.1-30.1-22.6c-0.5-10.2-4.9-72.1-4.5-119.6
		c0.4-47.9,5.5-81.4,5.5-81.4l0.3-3.6c0,0-2.4-10.4,10.2-16.8c12.5-6.4,32.1-16.5,32.1-16.5s3.1-0.9,2.8,1.9
		c-0.1,1.7,0.4,53.8,4.2,101.5c2.6,33,8.8,67.2,8.8,67.2s2.6,3.3,1.7-3.3c-0.5-3.3-2.7-47.6-1.3-88.7c1.4-40.7,6.5-78.3,6.5-78.3
		s-1.7-9,10.4-12.3c12-3.3,26.7-8.3,26.7-8.3s1.2-1.7,0.2,4.2C307.9,107.1,291.2,198.3,292.2,273.4z M199.1,368.2l-0.9,1.4l-1.2,1.2
		l-28.8-14.4c0,0-6.3-22-10.7-45.2c-4.9-25.8-7.9-53-7.9-53l-1.4-0.5l-0.5,1.4c0,0,0.4,22.8,1.4,44.4c1,19.7,2.6,38.2,2.6,38.2
		l-0.2,1.7l-1.2,1.2l-1.7,0.7c0,0-4.9-2.8-8.8-6.3c-4-3.7-6.8-8.1-6.8-8.1l-0.7-121.7l0.5-1.9c0,0,8.4-12.6,16.4-21.9
		c5.4-6.2,11.5-10.4,11.5-10.4s1,33.8,3.5,63.7c2,23.6,5.7,44.8,5.7,44.8l0.7,0.5l1.2-0.5c0,0-1.1-36.5-0.5-67.9
		c0.4-24.7,3.4-46.7,3.4-46.7s-0.4-3.3,1.5-6.7c1.5-2.6,5.3-5.6,5.3-5.6s7.4-3.8,12.7-7.3c3.2-2.1,5.5-4.7,5.5-4.7l1.2,0.2l0.2,1.4
		c0,0-7.2,62.8-7.7,121.7C192.9,319.6,199.1,368.2,199.1,368.2z M119.4,325.7c-4.3-2.8-8.7-5.8-8.7-5.8l-1.7-92.2l0.1-1.6
		c0,0,5-6,10.4-10.9c4-3.7,8.7-6.7,8.7-6.7L128,331C128,331,123.7,328.4,119.4,325.7z"/>
	<g id="XMLID_258_">
		<path id="XMLID_286_" class="st1" d="M37.8,189.6c-2.4-5.3-4.9-10.6-4.9-10.6l-1-0.5l-0.8,0.5l0.2,1.1l8.1,18.9l1.3,1.4h1l0.7-0.8
			C42.4,199.5,40.1,194.6,37.8,189.6z"/>
		<polygon id="XMLID_285_" class="st1" points="54.4,147.3 53.6,146.7 52.5,146.7 52.1,147.5 53.1,149 54.1,149.5 55.2,148.7 		"/>
		<path id="XMLID_284_" class="st1" d="M57.3,200.2l-1.8,0.2c0,0-2.3,2-4.9,3.5c-2.8,1.6-5.9,2.7-5.9,2.7l-0.7,0.6
			c0,0,0,1.5,0.4,1.9c0.7,0.6,2,0.3,2,0.3s4.6-1.9,7.7-4.2c2.6-2,3.7-4.4,3.7-4.4L57.3,200.2z"/>
		<path id="XMLID_283_" class="st1" d="M54.3,205.2c2.6-2,3.7-4.4,3.7-4.4l-0.7-0.6l-1.8,0.2c0,0-2.3,2-4.9,3.5
			c-2.8,1.6-5.9,2.7-5.9,2.7l-0.7,0.6c0,0,0,1.5,0.4,1.9c0.7,0.6,2,0.3,2,0.3S51.2,207.5,54.3,205.2z"/>
		<polygon id="XMLID_282_" class="st1" points="54.1,149.5 55.2,148.7 54.4,147.3 53.6,146.7 52.5,146.7 52.1,147.5 53.1,149 		"/>
		<path id="XMLID_281_" class="st1" d="M32.9,178.9l-1-0.5l-0.8,0.5l0.2,1.1l8.1,18.9l1.3,1.4h1l0.7-0.8c0,0-2.3-4.9-4.6-10
			C35.4,184.3,32.9,178.9,32.9,178.9z"/>
		<g id="XMLID_278_">
			<path id="XMLID_280_" class="st1" d="M72.7,345c-0.2,0.6,0.6,1.1,0.6,1.1s1.3,0.4,1.8,1.3c0.5,0.9,2.2,2.4,2.2,2.4
				s7.7,10.9,17,18.7c8.2,6.8,18,10.7,18,10.7s3.3,0.8,5.2,0c2.3-1,3.6-3.9,3.6-3.9l-0.3-3.7l-1.1-2.8l-6.4-6.2c0,0-2.8-5-7.2-10.7
				c-5.9-7.8-13.8-16.9-13.8-16.9l-0.3-2l-2.6-0.3l0.2-3.7c0,0-2.1-4.6-4.9-8.7c-3.3-4.8-7.3-9.1-7.3-9.1l0.3-8.4l-2.9-3.7v-3.3
				l-1-1.3l-0.8-0.9v-2.7l-0.8-1.2l-0.7-1.7l-1-1.3l0.3-1.7l-2-1.1l-0.5-2.7l-0.5-0.9l-0.5-0.6l-1.3-2.3v-1.7l-2.3-1.4
				c0,0-0.2-1.6-0.2-2.6c0-1-0.5-1.4-0.5-1.4l-0.3-0.8l-0.3-0.8l-0.7-12l-1.1-0.9v-5.3l-1-0.9l-0.3-4.5c0,0-1-0.8-1.2-1.6
				c-0.3-1.2,0.1-2.8,0.1-2.8l5.5-7.3c0,0,0.6-1.3,0.5-2.3c-0.1-1.4-0.8-2.8-0.8-2.8s-1.6-0.6-2.1-1.6c-0.7-1.2-0.3-2.8-0.3-2.8
				s1.6-1,2.8-3c1.5-2.5,2.6-6.2,2.6-6.2l0.3-9l1.5-0.6l0.8-1.1v-2.3l-1-0.8l1.1-2.2l8.3-3.1c0,0,2.8-0.7,4.9-1.8
				c2.4-1.2,4.2-2.9,4.2-2.9s3-5.3,6.2-9c1.8-2.1,2.4-0.9,3.9-2.8c1.8-2.3,2.6-4.7,2.6-4.7s-1.6-2.2-3.2-3.5
				c-2.5-1.9-5.4-3.2-5.4-3.2s-5.6-2.5-10.5-6.3c-6-4.6-11.5-10.7-11.5-10.7s-3.3-4.5-5.7-9.5c-2.9-5.8-5-12.3-5-12.3l-1.1-1.6
				l-1.1-0.6l-1,0.6l-2.4,3.9h-1.6l-2.1,3c0,0-1.8-0.2-3.1,0c-1.2,0.2-1.9,0.8-1.9,0.8s-5.9,19.6-11.8,28.8
				c-1.4,2.3-0.2,2.1-1.4,3.8c-1.9,2.7-4.6,5.1-6.3,7c-2.4,2.7-3.6,4.4-3.6,4.4l5.1,7.8c0,0-1.1,2.2-2.7,3.9
				c-2.1,2.3-4.7,4.2-4.7,4.2L8,218.9v5.1l0.7,6.6c0,0,3.3,2,6.4,4.9c2.2,2.1,3.8,5.2,3.8,5.2s-1.6,1.6-3,3.6
				c-1.3,1.9-2.4,4.1-2.4,4.1l3.3,24.5c0,0-0.4,1-0.1,1.9c0.3,1,1.3,2,1.3,2l14.5,4.2c0,0-1.2,1.6-1.8,3.3c-0.6,1.8-0.6,3.9-0.6,3.9
				s3,7.4,5.9,12.7c1.8,3.2,3.9,6,3.9,6s0.6,1.2,0.1,2.6c-0.4,1.2,0.1,2.1,0.1,2.1l2.9,3.3l6.1,2.2c0,0,1.2,0.3,2,1
				c0.5,0.5,0.7,1.2,0.8,1.6c0.5,2.8,0.1,6.8,3.2,11.8c3.9,6.5,11,11.5,11,11.5l4.2-0.5c0,0,1.2,0.3,1.7,0.8"/>
			<path id="XMLID_279_" class="st2" d="M113.2,376.4c0,0-9.6-3.3-16.6-9.6c-10.2-9.1-20.6-23.2-20.6-23.2l1.3-0.5l0.7-0.8l-1.5-0.8
				l-10.3-1.3c0,0-6-5.6-7.9-9.4c-3-6.4-2.5-12.4-2.5-12.4l8,3l0.5-0.6l-0.5-1.4L43.3,311c0,0-0.1-2.1-1.7-5.5
				c-1.7-3.7-4.9-8.8-6.2-12.2c-2.6-7.1-2.1-9.6-2.1-9.6l1-0.9l0.8-0.6l11.4,5.6l0.8-0.6l-0.3-0.8l-1-1.4l0.8-1.7l0.2-0.8l-1.8-2.7
				c0,0-9.5-6.3-14-9.8c-5.2-4-5.5-5.3-5.5-5.3l-1.1-1.1l-1.9,0.3v1.4c0,0,2.3,2.9,8,7.3c2.3,1.8,5.8,3.9,8.4,5.6
				c3.7,2.6,6.2,4.6,6.2,4.6l-1.1,1.1c0,0-5.5-3.1-10.9-5.6c-5.9-2.8-11.7-5.1-11.7-5.1l-0.3-1.4l-1-1.9l-0.8-3.7l0.7-1.7l-1-1.7
				l0.2-11.4l-1.2-1.9l0.2-3.3l3.3-4.5c0,0,0.3,1.2,2.1,3.1c1.1,1.2,2.7,1.8,4,3c2.2,2,3.9,4.5,3.9,4.5h0.8l0.6-0.5l0.5-1.1
				c0,0-0.6,0.1-1.2-0.4c-0.9-0.8-1.9-2.4-1.9-2.4l-2.1-2.8l-3.3-1.6l-1.6-2.3l-1-3l-2.3-2.2v-1.4l-1.6,0.6l-1.5-3.4l-0.8-1.9V227
				h-1.1l-3.3,2.5l-0.6-0.8l0.2-1.6l2.6-3.3l-1.8-1.1V220c0,0,2.8-8,5.2-14.9c1.8-5.1,3.3-9.4,3.3-9.4s3.7-4.4,5.7-6.2
				c0.6-0.6,1.5-0.5,1.5-0.5s7.1,14.3,9.1,18.2c0.3,0.6,0.5,0.8,0.5,0.8l5.5-2.5l0.6-1.3l-0.6-0.8l-1,0.5l-3.3,1.3l-13-27.8
				c0,0,5.6-4.2,10.9-13.7C41.9,154,46.8,139,46.8,139H49l2-2.2l2.6,4.7c0,0,3,5.5,5,8.4c2.2,3.1,5.1,8.6,5.1,8.6s4.3,6,8.6,9.9
				c2.9,2.6,6.4,3.9,6.4,3.9l1.5,0.9l2.1,2.3l1.6,1.1l2.8,0.5l1-0.3v-0.9l-1.8-1.3c0,0-1.8-2.1-3.9-3.5c-2.3-1.5-4.9-2.4-4.9-2.4
				l-3.6-2.5c0,0-5.3-6.1-9.8-13.1c-3.1-4.8-5.3-10.1-7.7-13.7c-2.1-3.2-2.9-3.9-2.9-3.9l1.2-0.5l1-0.6H56c0,0,2.7,7.6,6.9,14.4
				c3.3,5.4,8.3,10.3,8.3,10.3s4,3.6,8.9,7.4c3,2.3,6.5,4,9.1,5.9c3,2.1,4.7,4.2,4.7,4.2s-2.4,0.9-4,2.5c-1.8,1.7-2.8,4.2-2.8,4.2
				s-1.7,2.1-2.7,3.1c-1.3,1.2-1.8,1.4-1.8,1.4l-12.1,4.8c0,0-4.3,2.6-5.9,4.7c-1.5,2-0.3,3.4-0.3,3.4l-0.8,0.6l-1-0.8l-1.9-0.5
				l-1,0.9l0.8,1.6l2.1,2.2c0,0,1.6,3.2,0.2,6.9c-2.4,6.2-7.3,14-7.3,14v1.4l3.7,2.6l0.3,0.9l-12.2,19l1,1.2l1.1,0.5l0.8-0.8
				l3.6-5.8l1-0.3l0.7,0.8c0,0,1.5,5.2,2.2,10.9c0.8,6.5,0.9,13.6,0.9,13.6v1.4l1.8,2l0.3,1.2l-0.2,2.2l-0.8,2.6l-7.2,7l0.2,0.8
				l1.5,0.6l1.5-0.6l6.4-5.9l1.6-2.6c0,0,1.4,4.8,2.6,7.3c0.9,2,1.6,1.5,2.5,4.1c0.9,2.7,1.1,5.5,1.7,7.8c0.9,3.4,2,5.9,2,5.9
				s-2.1,3.3-3.5,6.1c-1.1,2.1-1.5,3.7-1.5,3.7v0.8l0.8,0.6l2.1,0.3l1.6-0.2c0,0,0-2.2,0.3-3.5c0.3-1.7,0.7-2.6,0.7-2.6l1.8,6.1
				c0,0,2.9,2.8,5.6,6.6c2.6,3.5,5.1,8.1,5.1,8.1s0.3,1.9,0.3,3.7c-0.1,2.6-0.4,5.3-0.4,5.3l0.3,0.8h1l1-0.3l0.5-0.8v-1.9l0.7-0.8
				l0.7,0.9l0.5,1.4c0,0,5.4,6.6,12.2,15.3c2.7,3.4,4.2,5.8,6.5,9c3.1,4.2,7.3,9.1,7.3,9.1s1.4,2.1,1.1,3
				C116,377.5,113.2,376.4,113.2,376.4z"/>
		</g>
		<path id="XMLID_276_" class="st1" d="M58,200.8l-0.7-0.6l-1.8,0.2c0,0-2.3,2-4.9,3.5c-2.8,1.6-5.9,2.7-5.9,2.7l-0.7,0.6
			c0,0,0,1.5,0.4,1.9c0.7,0.6,2,0.3,2,0.3s4.6-1.9,7.7-4.2C56.9,203.2,58,200.8,58,200.8z"/>
		<polygon id="XMLID_275_" class="st1" points="54.1,149.5 55.2,148.7 54.4,147.3 53.6,146.7 52.5,146.7 52.1,147.5 53.1,149 		"/>
		<path id="XMLID_274_" class="st1" d="M32.9,178.9l-1-0.5l-0.8,0.5l0.2,1.1l8.1,18.9l1.3,1.4h1l0.7-0.8c0,0-2.3-4.9-4.6-10
			C35.4,184.3,32.9,178.9,32.9,178.9z"/>
		<path id="XMLID_273_" class="st1" d="M37.8,189.6c-2.4-5.3-4.9-10.6-4.9-10.6l-1-0.5l-0.8,0.5l0.2,1.1l8.1,18.9l1.3,1.4h1l0.7-0.8
			C42.4,199.5,40.1,194.6,37.8,189.6z"/>
		<polygon id="XMLID_272_" class="st1" points="54.4,147.3 53.6,146.7 52.5,146.7 52.1,147.5 53.1,149 54.1,149.5 55.2,148.7 		"/>
		<path id="XMLID_271_" class="st1" d="M57.3,200.2l-1.8,0.2c0,0-2.3,2-4.9,3.5c-2.8,1.6-5.9,2.7-5.9,2.7l-0.7,0.6
			c0,0,0,1.5,0.4,1.9c0.7,0.6,2,0.3,2,0.3s4.6-1.9,7.7-4.2c2.6-2,3.7-4.4,3.7-4.4L57.3,200.2z"/>
		<path id="XMLID_270_" class="st1" d="M57.3,200.2l-1.8,0.2c0,0-2.3,2-4.9,3.5c-2.8,1.6-5.9,2.7-5.9,2.7l-0.7,0.6
			c0,0,0,1.5,0.4,1.9c0.7,0.6,2,0.3,2,0.3s4.6-1.9,7.7-4.2c2.6-2,3.7-4.4,3.7-4.4L57.3,200.2z"/>
		<polygon id="XMLID_268_" class="st1" points="54.4,147.3 53.6,146.7 52.5,146.7 52.1,147.5 53.1,149 54.1,149.5 55.2,148.7 		"/>
		<path id="XMLID_267_" class="st1" d="M37.8,189.6c-2.4-5.3-4.9-10.6-4.9-10.6l-1-0.5l-0.8,0.5l0.2,1.1l8.1,18.9l1.3,1.4h1l0.7-0.8
			C42.4,199.5,40.1,194.6,37.8,189.6z"/>
		<g id="XMLID_259_">
			<path id="XMLID_266_" class="st3" d="M245.9,108.9l-0.2,1.3l-2.3,1.6l-0.3,1.7l0.2,1.7l-0.8,1.3c0,0-8.3,5.4-16.5,9.6
				c-7,3.6-14.2,6.1-14.2,6.1s-3.7,2.1-6.8,3.4c-2.7,1.1-5.4,2-5.4,2l-1.3,0.8l-0.2,2.5c0,0-8.6,2.1-17.8,3.8
				c-10.9,1.9-22.7,3.4-22.7,3.4l-9.3,2.2l-2.9,1.4l-1.8,0.9l-1.5,1.2l-2.1,0.3l-1.1-0.6l-0.2-0.9l2.1-2l0.5-5.3
				c0,0,3.3-3.5,9.8-6.1c6.4-2.6,16.1-4.2,16.1-4.2s1-4.8,0.6-9.1c-0.3-2.6-2.2-4.4-1.9-6.7c0.5-4.6,3.7-6.4,3.7-6.4l1.3,0.5
				l0.2,0.8v2.5c0,0,7.6,3,19,3.6c7.7,0.4,20.7-2.4,20.7-2.4s3.3-0.8,6.4-2.3c2-1,3.5-1.3,5.3-2.1c2.2-1.1,4.3-1.8,4.3-1.8
				s3.7-0.9,5.9-1.9c1.4-0.6,4.6-2.7,4.6-2.7s1.3-0.9,2-1.1c0.7-0.2,2.4,0.2,3.1,0.6c0.7,0.5,2,1.3,2,1.3l1.1,0.2L245.9,108.9z"/>
			<path id="XMLID_265_" class="st3" d="M140.2,138.9c0,0-3.9,0.8-8.8,4.3c-6.8,4.8-15.3,12.7-15.3,12.7s-4.4,2.5-6.1,3.8
				c-3.1,2.3-6,7-6,7l-0.8-3c0,0-0.2-2.6,0.5-4.7c1-3,2.9-5.7,2.9-5.7s2.3-2.1,3.7-8.1c0.7-2.8-0.1-7,0.4-10.2
				c0.9-6.3,2.8-11.2,2.8-11.2s2.3-3.3,7.8-5.6c4.9-2,13-3.2,19-5.2c9.9-3.4,15.8-7.7,15.8-7.7s4.2,17.1,4.9,23.2
				c0.2,1.4-0.5,2.1-0.5,2.1s-3.8,1.1-8.1,2.9C146.4,135.8,140.2,138.9,140.2,138.9z"/>
			<path id="XMLID_264_" class="st3" d="M71.3,135.7c0,0-0.2,1.1-0.5,1.4c-0.3,0.3-0.8-0.2-0.8-0.2s-0.9-1.7-2.2-3.3
				c-0.7-0.9-1.4-1.3-2.5-2.4c-1.5-1.6-3.3-2.8-4.9-4.3c-2.7-2.6-4.9-5.3-4.9-5.3l0.8-0.5c0,0,3.7-3.7,7.5-10.5
				c3.6-6.4,7.2-15.6,8.3-21.8C75.1,72.6,66.9,62,66.9,62l-1-1.7l1.3-6.7c0,0,6.5,3.5,11.4,12.1c3.2,5.6,5.5,14.2,5.8,22
				C85.6,108.9,71.3,135.7,71.3,135.7z"/>
			<path id="XMLID_263_" class="st3" d="M105.3,142c-4.6,11-13.9,20-13.9,20s0.3-2.3-2.7-5.9c-2.1-2.4-5-4.4-7.7-6.9
				c-4.3-4.1-8-8.4-8-8.4s-0.1-0.9,0-1.3c0.1-0.3,0.2-1,0.3-1.2c0.5-0.9,1.6-3.5,1.6-3.5l2-2.7l0.8-1.4l7-12.5c0,0,1.7-6,2.7-12.8
				c0.6-3.9,0.3-8.1,0.9-11.5c1-4.9,2.7-7.2,2.7-7.2l2.3-3.6c0,0,1.9-2.3,4.3-4.4c3.1-2.7,6.8-5.2,6.8-5.2s3.5-2.4,6.7-3.8
				c2.5-1.1,4.9-1.3,4.9-1.3s2.4-0.5,3.6,0.6c1.8,1.6,2.8,5,2.8,5s-6.9,4-9.6,13.3c-4,13.6-4.4,34.2-4.4,34.2S109,133.1,105.3,142z"
				/>
			<path id="XMLID_262_" class="st3" d="M152.3,101.4l-3.4,1.1l-1.1-0.9l0.3-1.2l-0.8-0.6c0,0-4,0.4-7.9,1.5
				c-4.1,1.1-8.3,2.9-8.3,2.9l-1.8,0.8L129,106l-0.8,0.8l-1.9-0.5l-1.8,0.3l-2.3-0.3c0,0-3.1-0.2-0.5-2.7c1.1-1,3.7-2.5,6.1-6.3
				c3.4-5.2,6.6-12.9,6.6-12.9s5.7-9.3,9.8-17.2c3.7-7.2,6-13,6-13s3.8-11.6,4.6-15.6c0.5-2.9,1.6-11.8,1.6-11.8s-0.1-3.3-0.1-7.6
				c0.1-5.8-0.7-12.9-0.7-12.9s-0.1-1.5,2.9,1.6c1.2,1.2,1.9,1.9,2.3,2.4c0.5,0.5,1.7,1.8,1.7,1.8l3.3,4.6l0.9,1.3
				c0,0,4.7,7.4,5.6,8.5c0.1,0.2,0.5,0.4,0.7,0.5c0.2,0.1,1,0.2,1,0.2s0.6-1.3,1-1.9c0.8-1.2,1-0.8,1.4-1.2c0.5-0.5,1.5-0.3,1.5-0.3
				s-1.3,1.4-1.4,1.8c-0.3,0.6-0.3,2,0.2,2.5c0.2,0.2,0.9,0.2,1.2,0.2c0.5-0.1,1.3-0.6,1.6-0.9c1.2-1.4,1.8-3.5,4.3-6.2
				c1.9-2,4.3-4,4.3-4s4.2-2.3,5.7-3c1.3-0.6,5.4-1.5,5.4-1.5l2,0.9l-2.2,1.9c0,0-3.9,2.2-7.7,10.3c-0.3,0.7-0.8,2.8-0.8,2.8
				s-0.8,8.7-1.9,16.9c-1.2,8.5-2.7,16.6-2.7,16.6s-2.9,9.1-10.9,18.6C166.2,90.9,152.3,101.4,152.3,101.4z"/>
			<path id="XMLID_261_" class="st3" d="M255.2,98.8c-0.1,0.7-1.2,1.1-1.2,1.1s-6.5-1.5-13.6-1.1c-6.7,0.3-13.5,2.1-13.5,2.1
				s-6.8,1.8-14,4.5c-3.7,1.4-7,3.3-10.6,4.1c-13.4,3-23.7,2.1-24.2,2c-1-0.1-3.4-0.1-3.4-0.1l-2.3-0.3c0,0-1.8-0.7-2.9-3.8
				c-0.2-0.5,0-2.2,0-2.2l2.4-4.7c0,0,1.4-2.8,4-6.3c1-1.4,2.8-3.1,3.9-4.6c2.5-3.4,5-6.9,5-6.9s2.4-4.3,7-7
				c4-2.4,10.1-3.2,10.1-3.2s4,0.1,9.9-1.4c5.9-1.5,13.6-4.5,19-6.9c11.1-5,14.9-11.5,14.9-11.5s0.5-1.1,1.1-1.2
				c0.6-0.2,1.3,0.6,1.3,0.6s-0.1,5.2-4.5,11.6c-3.5,5.2-8.8,10.9-12.8,15.6c-4.1,4.8-7,8.6-7,8.6l2-0.2c0,0,7.9-0.4,14.9,1.9
				c7.3,2.4,13.7,7.6,13.7,7.6S255.3,98.1,255.2,98.8z"/>
			<path id="XMLID_260_" class="st3" d="M122,59.9c-2.6-1.5-6.4-1.2-6.4-1.2l-21.8,7.3c0,0-1.5,0.4-2.1,1.1c-1,1.1-1.4,2.7-1.4,2.7
				l-1,0.6l-0.3-1.1l-0.2-3.9c0,0,0.1-9.9,4.3-16.4c4.8-7.4,13.6-11.5,13.6-11.5s6.8-3.7,11.8-9.8c6.2-7.5,11-17.7,11-17.7
				s0.5-0.9,1-1.1c0.4-0.2,0.9,0.3,0.9,0.3s1,3.5,2.8,8.7c1.1,3.4,3,7.4,3.8,11.7c2.1,11,1.7,23.4,1.7,23.4s-0.5,7.8-2.7,13.2
				c-3.8,9.2-10.3,18-10.3,18l-1.1,0.3l-0.5-0.8c0,0,0.5-6.2,0.3-11.8c-0.1-4-0.8-8.1-0.8-8.1S123.6,60.8,122,59.9z"/>
		</g>
	</g>
	<g id="XMLID_1_">
		<path id="XMLID_2_" class="st4" d="M154.2,397.5l-18.8-12.2c5.4-8.3,10.9-16.7,16.3-25.1l18.8,12.2l-3,4.6l-14.1-9.2l-3.7,5.8
			l13.6,8.8l-2.9,4.4l-13.6-8.8l-3.7,5.7l14.1,9.2L154.2,397.5z"/>
		<path id="XMLID_4_" class="st4" d="M193,392.4l-14.3,7.7l-1-0.5l-3.2-15.8l-9.1,19.8l-5.1-2.4l12.5-27.2l5.9,2.7l3.1,15.6
			l13.9-7.8l5.9,2.7L189,414.4l-5.1-2.4L193,392.4z"/>
		<path id="XMLID_6_" class="st4" d="M212.3,412.9l-8.1-2.6l-2.7,8.4l-5.4-1.7l9.1-28.5c4.5,1.4,9,2.8,13.4,4.3
			C232.6,397.2,226.2,417.4,212.3,412.9z M205.8,405.4l8.1,2.6c6.9,2.2,10.1-7.9,3.2-10.1l-8.1-2.6L205.8,405.4z"/>
		<path id="XMLID_9_" class="st4" d="M257.4,417.8c-1.7,7.5-7.9,14.1-18.2,12c-10.3-2.2-13.5-10.6-11.9-18.3
			c1.6-7.7,8.2-14.4,18.3-12.2C255.7,401.4,259.1,410.1,257.4,417.8z M232.7,412.7c-0.9,4.8,0.6,10.5,7.5,12
			c6.9,1.5,10.6-3.2,11.7-8c1.1-4.9-0.5-11-7.4-12.5C237.6,402.8,233.6,407.7,232.7,412.7z"/>
		<path id="XMLID_12_" class="st4" d="M291.3,436.3l-4.8-0.4l-2.8-9.7l-2.3-9.7l-4,9.2l-4.5,8.9l-4.8-0.4l-8.2-30.8l6.3,0.6l5,22.1
			l9.2-20.8l3.7,0.3l5.5,22.2l8.8-20.9l6.3,0.6L291.3,436.3z"/>
		<path id="XMLID_14_" class="st4" d="M329.7,436.8l-22.4,0.2c-0.1-10-0.1-19.9-0.2-29.9l22.4-0.2l0,5.5l-16.8,0.1l0.1,6.9l16.2-0.1
			l0,5.3l-16.2,0.1l0,6.7l16.8-0.1L329.7,436.8z"/>
		<path id="XMLID_17_" class="st4" d="M361.8,434.5l-6.7,0.5l-9.5-9.3l-5.4,0.4l0.8,10l-5.6,0.4l-2.3-29.9c4.7-0.4,9.5-0.7,14.2-1
			c7-0.5,11.1,3.9,11.5,9.1c0.3,4.1-1.2,8.4-6.8,10l9.8,9.5L361.8,434.5z M339.1,411.6l0.7,9.5l8.6-0.7c3.6-0.3,4.9-2.8,4.7-5.2
			c-0.2-2.4-1.9-4.6-5.5-4.4L339.1,411.6z"/>
		<path id="XMLID_20_" class="st4" d="M387.2,430.9l-22.2,3.1c-1.4-9.9-2.8-19.8-4.2-29.6l22.2-3.1l0.8,5.4l-16.6,2.3l1,6.8l16-2.3
			l0.7,5.2l-16,2.3l0.9,6.7l16.6-2.3L387.2,430.9z"/>
		<path id="XMLID_22_" class="st4" d="M414.8,406.4c2.4,7.2,0.2,15.9-9.7,19c-3.5,1.1-7.7,2.4-11.2,3.5l-8.9-28.6
			c3.5-1.1,7.7-2.4,11.2-3.5C406,393.7,412.5,399.4,414.8,406.4z M397.6,422l5.9-1.8c6.5-2,7.6-7.6,6-12.2c-1.5-4.4-5.5-8-11.7-6.1
			l-5.9,1.8L397.6,422z"/>
		<path id="XMLID_25_" class="st4" d="M446.8,388.2c0.8,2.2,0.6,4.6-1.6,6.8c3.7-0.2,6.2,2.8,6.8,4.6c2.3,6.2-1.6,10-7.4,12.2
			c-4.4,1.7-8.8,3.3-13.3,5l-10.5-28c4.4-1.7,8.8-3.3,13.3-5C439.6,381.6,444.6,382.5,446.8,388.2z M430.2,397.9l8.1-3
			c3.3-1.2,3.9-3.1,3.3-4.7c-0.5-1.3-2.3-3-5.7-1.8l-8.1,3L430.2,397.9z M434.7,409.8l8.1-3c2.2-0.8,5-2.7,4-5.3
			c-0.9-2.5-4.5-2.7-6.7-1.9l-8.1,3L434.7,409.8z"/>
		<path id="XMLID_29_" class="st4" d="M461.9,386l2.7-14.4l6.3-2.6l0.1,0.2l-4.5,20.5l4.7,11.4l-5.2,2.1l-4.7-11.4l-17.2-11.7
			l-0.1-0.2l6.2-2.5L461.9,386z"/>
		<path id="XMLID_31_" class="st4" d="M492.3,392.3l-11.9-27.4l5.1-2.2l11.9,27.4L492.3,392.3z"/>
		<path id="XMLID_33_" class="st4" d="M507.8,352.6l5.1-2.3l12.3,27.3l-3.2,1.4l0,0l-22.6-11.9l8.3,18.4l-5.1,2.3l-12.3-27.3
			l4.2-1.9l21,10.9L507.8,352.6z"/>
		<path id="XMLID_35_" class="st4" d="M534.8,340l5.1-2.4l12.8,27.1l-3.2,1.5l0,0l-22.9-11.5l8.6,18.2l-5.1,2.4l-12.8-27l4.1-2
			l21.2,10.5L534.8,340z"/>
		<path id="XMLID_37_" class="st4" d="M580.1,338.9c2.1,7.4-0.3,16.2-10.3,19.2c-10.1,3-16.9-2.9-19.1-10.5
			c-2.2-7.5,0.4-16.5,10.3-19.5C570.8,325.3,578,331.4,580.1,338.9z M556,346.1c1.5,4.7,5.5,9,12.3,7c6.8-2,7.8-7.8,6.5-12.6
			c-1.3-4.9-5.6-9.5-12.4-7.5C555.6,335.1,554.5,341.3,556,346.1z"/>
		<path id="XMLID_40_" class="st4" d="M602.3,349.5l-5.7,1.2l-18.2-27l6.2-1.3l13.5,21l4.2-24.6l6.2-1.3L602.3,349.5z"/>
		<path id="XMLID_42_" class="st4" d="M637.8,338.1l-15.5,2.1l-1.8,5.9l-6.1,0.8l9.4-31.4l6.1-0.8l17.2,27.9l-6.1,0.8L637.8,338.1z
			 M627.7,321.3l-3.8,13.4l11-1.5L627.7,321.3z"/>
		<path id="XMLID_45_" class="st4" d="M650,317.6l-9.4,0.8l-0.4-5.1c8.6-0.8,15.9-1.4,24.5-2.1l0.4,5.1l-9.4,0.8l2.2,24.7l-5.6,0.5
			L650,317.6z"/>
		<path id="XMLID_47_" class="st4" d="M670.5,340.9l-1.7-29.9l5.6-0.3l1.7,29.9L670.5,340.9z"/>
		<path id="XMLID_49_" class="st4" d="M711,324.6c0.1,7.7-4.4,15.6-14.9,15.9c-10.5,0.3-15.6-7.2-15.8-15c-0.2-7.9,4.6-15.9,15-16.2
			C705.6,309,710.9,316.8,711,324.6z M685.9,325.4c0.3,4.9,3,10.1,10.1,9.9c7-0.2,9.6-5.5,9.5-10.5c0-5-3-10.6-10.1-10.4
			C688.4,314.6,685.6,320.3,685.9,325.4z"/>
		<path id="XMLID_52_" class="st4" d="M735.3,309.7l5.6,0.1l-0.4,29.9l-3.5,0l0,0l-15.4-20.4l-0.3,20.2l-5.6-0.1l0.4-29.9l4.6,0.1
			l14.4,18.7L735.3,309.7z"/>
	</g>
	<g id="XMLID_16_">
		<path id="XMLID_54_" class="st5" d="M566.2,400.4c0.1-10.9,10.4-15.6,19.8-15.6c10.3,0,21.4,4.2,21.4,16.4
			c0,13.1-9.8,15.6-20.6,15.6c-4.3,0-11.2,1.1-11.2,6.7v4.4h31.9v9H566c0-4.5,0-9,0-13.5c0-11.8,10.7-15.3,20.9-15.3
			c3.9,0,11-0.7,11-6.6c0-5.6-5.1-8.2-11.7-8.2c-5.1,0-10.3,2.6-10.4,7.2H566.2z"/>
		<path id="XMLID_56_" class="st5" d="M613.6,407.4c0-30.7,45.1-30.6,45.1,0v7.4c0,30.6-45.1,30.7-45.1,0V407.4z M623.2,414.8
			c0,18.7,25.9,18.7,25.9,0v-7.4c0-18.4-25.9-18.6-25.9,0V414.8z"/>
		<path id="XMLID_59_" class="st5" d="M663.2,428.6h7.7v-34.4h-8v-8.8h17.6v43.2h7.1v8.2h-24.5V428.6z"/>
		<path id="XMLID_61_" class="st5" d="M700.5,410.4c-4.4-2.4-6.5-6.2-6.5-10.1c0-10.4,9.5-15.6,20.7-15.6c11.1,0,21.1,5.4,21.1,15.6
			c0,3.5-2,7.8-6.6,9.7c5.3,2.1,7.7,7.5,7.8,11.5c0.2,12-10.8,16.7-22.3,16.7c-11.2-0.1-22.3-4.6-22.1-16.7
			C692.7,417.4,695.2,412.5,700.5,410.4z M702.8,421.5c-0.1,4,4.2,7.7,12,7.7c7.9,0,12.1-3.7,12-7.7c-0.1-5.1-5.6-7.3-12-7.3
			C708.8,414.2,702.8,416.4,702.8,421.5z M714.8,407.1c5.9,0,10.7-2.7,10.9-7.2c0.1-4.3-4.4-7.3-10.9-7.3c-7.3,0-10.9,3.7-10.8,7.3
			C704.1,404.4,709.1,407.1,714.8,407.1z"/>
	</g>
</g>
</svg>
